<?xml version="1.0" encoding="UTF-8" standalone="no"?>
<!-- Created with Inkscape (http://www.inkscape.org/) -->
<svg
   xmlns:svg="http://www.w3.org/2000/svg"
   xmlns="http://www.w3.org/2000/svg"
   version="1.0"
   width="360"
   height="360"
   id="svg2">
  <defs
     id="defs5">
    <marker
       refX="0"
       refY="0"
       orient="auto"
       id="DotL"
       style="overflow:visible">
      <path
         d="M -2.5,-1 C -2.5,1.76 -4.74,4 -7.5,4 C -10.26,4 -12.5,1.76 -12.5,-1 C -12.5,-3.76 -10.26,-6 -7.5,-6 C -4.74,-6 -2.5,-3.76 -2.5,-1 z"
         transform="matrix(0.8,0,0,0.8,5.92,0.8)"
         id="path3754"
         style="fill-rule:evenodd;stroke:#000000;stroke-width:1pt;marker-start:none;marker-end:none" />
    </marker>
    <marker
       refX="0"
       refY="0"
       orient="auto"
       id="Arrow1Lend"
       style="overflow:visible">
      <path
         d="M 0,0 L 5,-5 L -12.5,0 L 5,5 L 0,0 z"
         transform="matrix(-0.8,0,0,-0.8,-10,0)"
         id="path3695"
         style="fill-rule:evenodd;stroke:#000000;stroke-width:1pt;marker-start:none" />
    </marker>
  </defs>
  <path
     d="M 300,892.36218 C 300,969.68204 237.31986,1032.3622 160,1032.3622 C 82.680135,1032.3622 20,969.68204 20,892.36218 C 20,815.04232 82.680135,752.36218 160,752.36218 C 237.31986,752.36218 300,815.04232 300,892.36218 z"
     transform="translate(21,-711.36218)"
     id="path2384"
     style="fill:none;fill-opacity:1;fill-rule:evenodd;stroke:#000000;stroke-width:2;stroke-linecap:butt;stroke-linejoin:miter;stroke-miterlimit:4;stroke-dasharray:none;stroke-opacity:1" />
  <path
     d="M 275.0625,205.875 L 274.34375,205.90625 L 274.40625,206.90625 L 275.09375,206.875 L 277.78125,206.78125 L 278.375,206.78125 L 278.34375,205.78125 L 277.75,205.78125 L 275.0625,205.875 z M 282.375,206.78125 L 283.28125,206.78125 L 286.125,206.84375 L 286.34375,206.84375 L 286.375,205.84375 L 286.15625,205.84375 L 283.3125,205.78125 L 283.28125,205.78125 L 282.375,205.78125 L 282.375,206.78125 z M 290.34375,207.03125 L 291.96875,207.15625 L 292,207.15625 L 294.3125,207.34375 L 294.375,206.34375 L 292.0625,206.15625 L 292.03125,206.15625 L 290.375,206.03125 L 290.34375,207.03125 z M 269.875,206.1875 L 269.84375,206.1875 L 267.34375,206.40625 L 266.34375,206.53125 L 266.4375,207.53125 L 267.4375,207.40625 L 269.9375,207.1875 L 270.40625,207.15625 L 270.34375,206.15625 L 269.875,206.1875 z M 298.28125,207.6875 L 302.25,208.125 L 302.375,207.125 L 298.375,206.6875 L 298.28125,207.6875 z M 260.09375,207.375 L 258.375,207.6875 L 258.5625,208.65625 L 260.25,208.375 L 260.28125,208.375 L 262.5,208.03125 L 262.34375,207.03125 L 260.09375,207.375 z M 306.1875,208.625 L 310.15625,209.21875 L 310.3125,208.21875 L 306.34375,207.65625 L 306.1875,208.625 z M 253.34375,208.71875 L 251.1875,209.25 L 251.1875,209.28125 L 250.53125,209.4375 L 250.8125,210.40625 L 251.4375,210.21875 L 253.5625,209.6875 L 253.5625,209.71875 L 254.65625,209.46875 L 254.4375,208.46875 L 253.34375,208.71875 z M 314.09375,209.875 L 317.90625,210.53125 L 318.0625,209.5625 L 314.25,208.90625 L 314.09375,209.875 z M 245.0625,211.09375 L 245.03125,211.09375 L 243.09375,211.78125 L 243.09375,211.8125 L 242.875,211.875 L 243.21875,212.8125 L 243.4375,212.71875 L 243.4375,212.75 L 245.34375,212.0625 L 245.375,212.0625 L 247,211.53125 L 246.6875,210.5625 L 245.0625,211.09375 z M 237.53125,214.09375 L 235.78125,214.90625 L 235.75,214.90625 L 235.75,214.9375 L 235.46875,215.0625 L 235.9375,215.96875 L 236.1875,215.8125 L 236.21875,215.8125 L 237.9375,215 L 239.53125,214.28125 L 239.125,213.375 L 237.53125,214.09375 z M 229.1875,218.5625 L 229.15625,218.59375 L 228.46875,219.03125 L 229.03125,219.875 L 229.6875,219.4375 L 229.71875,219.40625 L 232.4375,217.8125 L 231.90625,216.96875 L 229.1875,218.5625 z M 223.3125,222.71875 L 223.28125,222.71875 L 221.96875,223.78125 L 222.625,224.5625 L 223.90625,223.5 L 225.75,222.125 L 225.15625,221.3125 L 223.3125,222.71875 z M 218.0625,227.25 L 218.0625,227.28125 L 216.09375,229.28125 L 216.8125,229.96875 L 218.75,228 L 218.78125,227.96875 L 219.625,227.1875 L 218.96875,226.4375 L 218.0625,227.25 z M 211.40625,234.75 L 211.40625,234.78125 L 210.90625,235.46875 L 211.71875,236.03125 L 212.21875,235.375 L 212.1875,235.375 L 214.1875,232.90625 L 213.40625,232.28125 L 211.40625,234.75 z M 207.6875,240.125 L 206.46875,242.15625 L 207.3125,242.6875 L 208.53125,240.65625 L 209.4375,239.3125 L 208.59375,238.75 L 207.6875,240.125 z M 204.5,245.71875 L 203.09375,248.5625 L 202.78125,249.3125 L 203.6875,249.71875 L 204,249 L 204,248.96875 L 205.375,246.1875 L 205.40625,246.15625 L 204.53125,245.6875 L 204.5,245.6875 L 204.5,245.71875 z M 200.65625,254.375 L 199.78125,256.78125 L 200.71875,257.125 L 201.59375,254.75 L 201.59375,254.71875 L 202.125,253.375 L 201.1875,253 L 200.65625,254.375 z M 197.78125,263.21875 L 197.46875,264.46875 L 198.4375,264.71875 L 198.75,263.46875 L 199.5,260.875 L 198.53125,260.59375 L 197.78125,263.21875 z M 196.375,269.125 L 195.78125,272.03125 L 195.78125,272.0625 L 195.75,272.34375 L 196.71875,272.5 L 196.78125,272.25 L 196.78125,272.21875 L 197.34375,269.34375 L 197.34375,269.3125 L 197.5,268.59375 L 196.53125,268.375 L 196.375,269.125 z M 194.875,277.84375 L 194.59375,280.28125 L 195.5625,280.375 L 195.875,277.96875 L 196.09375,276.4375 L 195.09375,276.28125 L 194.875,277.84375 z M 194.03125,286.25 L 193.90625,288.28125 L 194.90625,288.34375 L 195.03125,286.3125 L 195.1875,284.34375 L 194.1875,284.28125 L 194.03125,286.25 z M 193.71875,294.125 L 193.71875,294.15625 L 193.71875,296.3125 L 194.71875,296.28125 L 194.71875,294.15625 L 194.78125,292.3125 L 193.78125,292.28125 L 193.71875,294.125 z M 193.78125,300.3125 L 193.90625,303.53125 L 193.90625,303.5625 L 193.9375,304.3125 L 194.9375,304.25 L 194.90625,303.5 L 194.78125,300.28125 L 193.78125,300.3125 z M 194.21875,308.3125 L 194.46875,311.25 L 194.46875,311.28125 L 194.59375,312.3125 L 195.59375,312.21875 L 195.46875,311.1875 L 195.46875,311.15625 L 195.21875,308.25 L 194.21875,308.3125 z M 195.0625,316.3125 L 195.15625,316.84375 L 195.15625,316.875 L 195.4375,318.71875 L 195.71875,320.28125 L 196.6875,320.09375 L 196.40625,318.5625 L 196.125,316.71875 L 196.0625,316.15625 L 195.0625,316.3125 z"
     id="path3224"
     style="fill:#000000;fill-opacity:1;fill-rule:evenodd;stroke:none;stroke-width:1;stroke-linecap:butt;stroke-linejoin:miter;stroke-miterlimit:4;stroke-dasharray:4, 4;stroke-dashoffset:0;stroke-opacity:1" />
  <path
     d="M 247.96875,60.03125 L 248.46875,60.90625 L 250.5,59.71875 L 249.96875,58.84375 L 247.96875,60.03125 z M 243.90625,62.375 L 241.09375,64.125 L 241.625,64.96875 L 244.40625,63.25 L 244.4375,63.25 L 245,62.90625 L 244.5,62.03125 L 243.90625,62.375 z M 234.34375,68.46875 L 234.90625,69.3125 L 238.21875,67.09375 L 237.6875,66.25 L 234.34375,68.46875 z M 227.75,73.03125 L 228.34375,73.84375 L 231.59375,71.5625 L 231.03125,70.71875 L 227.75,73.03125 z M 223.03125,76.625 L 223,76.625 L 221.375,77.90625 L 222,78.6875 L 223.625,77.40625 L 225.15625,76.25 L 224.5625,75.46875 L 223.03125,76.625 z M 216.53125,82 L 216.5,82 L 215.25,83.09375 L 215.9375,83.84375 L 217.15625,82.75 L 217.1875,82.75 L 218.9375,81.21875 L 218.28125,80.46875 L 216.53125,82 z M 210.71875,87.375 L 210.6875,87.375 L 209.4375,88.625 L 210.15625,89.34375 L 211.40625,88.09375 L 213,86.53125 L 212.3125,85.8125 L 210.71875,87.375 z M 205.5625,92.71875 L 205.5625,92.75 L 203.96875,94.53125 L 204.34375,94.84375 L 204.71875,95.1875 L 204.75,95.15625 L 206.3125,93.40625 L 206.28125,93.40625 L 207.40625,92.21875 L 206.65625,91.53125 L 205.5625,92.71875 z M 201.03125,98.09375 L 199.65625,99.875 L 198.96875,100.8125 L 199.78125,101.40625 L 200.46875,100.46875 L 201.8125,98.71875 L 202.1875,98.25 L 201.40625,97.625 L 201.03125,98.09375 z M 195.96875,105.1875 L 195.9375,105.21875 L 194.84375,106.96875 L 194.53125,107.5 L 195.375,108.03125 L 195.6875,107.5 L 196.78125,105.75 L 197.5,104.65625 L 196.6875,104.125 L 195.96875,105.1875 z M 191.875,112.25 L 191.875,112.28125 L 191.03125,114.03125 L 191,114.03125 L 190.75,114.625 L 191.65625,115.03125 L 191.90625,114.46875 L 191.90625,114.4375 L 192.78125,112.71875 L 193.4375,111.46875 L 192.53125,111.03125 L 191.875,112.25 z M 188.75,119.25 L 188.75,119.28125 L 187.75,122.09375 L 188.71875,122.40625 L 189.6875,119.625 L 190.0625,118.6875 L 189.125,118.3125 L 188.75,119.25 z M 186.53125,126.15625 L 186.53125,126.1875 L 185.71875,129.59375 L 185.65625,129.875 L 186.65625,130.0625 L 186.6875,129.8125 L 186.6875,129.78125 L 187.5,126.4375 L 187.5,126.40625 L 187.5625,126.21875 L 186.59375,125.9375 L 186.53125,126.15625 z M 184.6875,136.3125 L 184.6875,136.34375 L 184.59375,137.84375 L 185.5625,137.9375 L 185.6875,136.4375 L 186,133.96875 L 185,133.84375 L 184.6875,136.3125 z M 184.375,142.9375 L 184.375,142.96875 L 184.46875,145.90625 L 185.46875,145.875 L 185.375,142.96875 L 185.375,142.9375 L 185.40625,141.90625 L 184.40625,141.875 L 184.375,142.9375 z M 184.8125,149.9375 L 185.125,152.5625 L 185.125,152.59375 L 185.375,153.90625 L 186.34375,153.75 L 186.125,152.4375 L 186.125,152.40625 L 185.78125,149.8125 L 184.8125,149.9375 z M 186.15625,157.875 L 186.34375,158.75 L 186.34375,158.78125 L 187.125,161.75 L 188.09375,161.5 L 187.3125,158.53125 L 187.125,157.65625 L 186.15625,157.875 z M 188.34375,165.625 L 189.0625,167.6875 L 189.71875,169.375 L 190.65625,169.03125 L 190,167.34375 L 190,167.3125 L 189.28125,165.28125 L 188.34375,165.625 z M 191.28125,173.09375 L 191.375,173.34375 L 192.65625,176.09375 L 193,176.75 L 193.875,176.28125 L 193.5625,175.65625 L 192.28125,172.9375 L 192.1875,172.6875 L 191.28125,173.09375 z M 194.84375,180.3125 L 195.4375,181.375 L 195.4375,181.40625 L 196.8125,183.78125 L 197.6875,183.28125 L 196.3125,180.90625 L 195.71875,179.8125 L 194.84375,180.3125 z M 198.9375,187.21875 L 200,188.8125 L 200,188.84375 L 201.1875,190.53125 L 202,189.96875 L 200.84375,188.28125 L 199.78125,186.65625 L 198.9375,187.21875 z M 203.53125,193.8125 L 204.875,195.625 L 205.96875,197 L 206.75,196.375 L 205.65625,195 L 204.3125,193.21875 L 203.53125,193.8125 z M 208.5,200.09375 L 209.78125,201.6875 L 209.8125,201.6875 L 211.09375,203.15625 L 211.84375,202.5 L 210.5625,201.03125 L 209.25,199.46875 L 208.5,200.09375 z M 213.8125,206.125 L 216.09375,208.5625 L 216.5625,209.03125 L 217.28125,208.34375 L 216.8125,207.875 L 216.8125,207.84375 L 214.53125,205.4375 L 213.8125,206.125 z M 219.4375,211.875 L 221.59375,213.9375 L 222.34375,214.59375 L 223.03125,213.875 L 222.28125,213.1875 L 220.125,211.125 L 219.4375,211.875 z M 225.34375,217.25 L 225.78125,217.65625 L 227.21875,218.84375 L 228.46875,219.8125 L 229.09375,219.03125 L 227.875,218.0625 L 227.84375,218.0625 L 226.4375,216.875 L 226,216.5 L 225.34375,217.25 z"
     id="path3226"
     style="fill:#000000;fill-opacity:1;fill-rule:evenodd;stroke:none;stroke-width:1;stroke-linecap:butt;stroke-linejoin:miter;stroke-miterlimit:4;stroke-dasharray:4, 4;stroke-dashoffset:0;stroke-opacity:1" />
  <path
     d="M 179,259.15625 L 181.1875,259.21875 L 181.21875,259.21875 L 182.96875,259.34375 L 183.03125,258.34375 L 181.28125,258.21875 L 181.25,258.21875 L 179,258.15625 L 179,259.15625 z M 173.1875,258.5 L 173.15625,258.5 L 170.96875,258.84375 L 171.125,259.8125 L 173.28125,259.46875 L 173.28125,259.5 L 175.0625,259.3125 L 174.96875,258.34375 L 173.1875,258.5 z M 186.875,259.84375 L 188.0625,260.03125 L 188.09375,260.03125 L 190.03125,260.4375 L 190.0625,260.4375 L 190.75,260.625 L 191,259.65625 L 190.28125,259.46875 L 188.25,259.0625 L 188.25,259.03125 L 187.03125,258.84375 L 186.875,259.84375 z M 165.90625,260 L 165.90625,260.03125 L 164.4375,260.5 L 164.40625,260.5 L 163.15625,260.96875 L 163.5,261.90625 L 164.75,261.4375 L 166.1875,260.96875 L 166.21875,260.96875 L 167.28125,260.65625 L 167,259.71875 L 165.90625,260 z M 194.5625,261.71875 L 196.03125,262.21875 L 196.0625,262.21875 L 197.6875,262.875 L 197.6875,262.84375 L 198.25,263.125 L 198.65625,262.1875 L 198.09375,261.9375 L 198.0625,261.9375 L 196.40625,261.28125 L 196.375,261.28125 L 194.875,260.78125 L 194.5625,261.71875 z M 158.4375,263.09375 L 158.40625,263.09375 L 156.90625,263.90625 L 156.90625,263.9375 L 155.90625,264.53125 L 156.4375,265.375 L 157.40625,264.78125 L 158.875,263.96875 L 159.90625,263.46875 L 159.4375,262.5625 L 158.4375,263.09375 z M 152.4375,266.90625 L 152.40625,266.90625 L 150.9375,268.0625 L 149.46875,269.3125 L 149.4375,269.3125 L 149.40625,269.34375 L 150.09375,270.09375 L 150.125,270.0625 L 151.5625,268.84375 L 153,267.71875 L 153.03125,267.6875 L 153.15625,267.59375 L 152.5625,266.78125 L 152.4375,266.90625 z M 145.125,273.625 L 145.125,273.65625 L 143.8125,275.15625 L 144.59375,275.78125 L 145.875,274.3125 L 145.875,274.28125 L 147.25,272.84375 L 146.5,272.15625 L 145.125,273.625 z M 140.96875,278.84375 L 140.9375,278.84375 L 140.9375,278.875 L 139.625,280.8125 L 139.59375,280.8125 L 139.0625,281.65625 L 139.90625,282.1875 L 140.4375,281.375 L 140.4375,281.34375 L 141.78125,279.4375 L 141.75,279.4375 L 142.15625,278.9375 L 141.34375,278.3125 L 140.96875,278.84375 z M 135.75,287.34375 L 135.71875,287.34375 L 135.0625,288.625 L 135.96875,289.09375 L 136.625,287.8125 L 137.84375,285.59375 L 136.96875,285.09375 L 135.75,287.34375 z M 133.3125,292.28125 L 133.3125,292.3125 L 132.15625,294.96875 L 132.125,294.96875 L 131.75,295.96875 L 132.65625,296.34375 L 133.0625,295.34375 L 134.21875,292.71875 L 134.21875,292.6875 L 133.3125,292.25 L 133.3125,292.28125 z M 129.9375,300.65625 L 129.9375,300.6875 L 128.96875,303.46875 L 129.90625,303.8125 L 130.875,301 L 131.21875,300.03125 L 130.28125,299.6875 L 129.9375,300.65625 z M 126.90625,310.21875 L 127.875,310.5 L 128.71875,307.59375 L 127.75,307.3125 L 126.90625,310.21875 z"
     id="path3230"
     style="fill:#000000;fill-opacity:1;fill-rule:evenodd;stroke:none;stroke-width:1;stroke-linecap:butt;stroke-linejoin:miter;stroke-miterlimit:4;stroke-dasharray:4, 4;stroke-dashoffset:0;stroke-opacity:1" />
  <path
     d="M 149.71875,44.53125 L 150.3125,46.5 L 150.84375,48.375 L 151.8125,48.09375 L 151.28125,46.21875 L 150.6875,44.25 L 149.71875,44.53125 z M 151.90625,52.21875 L 152.8125,55.8125 L 152.8125,55.84375 L 152.84375,56.09375 L 153.84375,55.875 L 153.78125,55.59375 L 152.875,51.96875 L 151.90625,52.21875 z M 153.75,60 L 153.84375,60.34375 L 153.84375,60.375 L 154.59375,63.875 L 155.5625,63.6875 L 154.8125,60.15625 L 154.75,59.75 L 153.75,60 z M 155.34375,67.8125 L 155.96875,71.125 L 156.0625,71.71875 L 157.0625,71.5625 L 156.96875,70.96875 L 156.96875,70.9375 L 156.34375,67.625 L 155.34375,67.8125 z M 156.6875,75.6875 L 156.9375,77.21875 L 157.28125,79.625 L 158.28125,79.5 L 157.9375,77.0625 L 157.6875,75.53125 L 156.6875,75.6875 z M 157.78125,83.59375 L 157.78125,83.65625 L 157.78125,83.6875 L 158.15625,87 L 158.15625,87.03125 L 158.1875,87.53125 L 159.1875,87.46875 L 159.15625,86.90625 L 158.78125,83.5625 L 158.78125,83.46875 L 157.78125,83.59375 z M 158.53125,91.53125 L 158.71875,93.875 L 158.71875,93.90625 L 158.78125,95.5 L 159.78125,95.4375 L 159.71875,93.84375 L 159.71875,93.8125 L 159.53125,91.4375 L 158.53125,91.53125 z M 158.96875,99.5 L 159,100.96875 L 159.03125,103.46875 L 160.03125,103.46875 L 160,100.9375 L 159.96875,99.46875 L 158.96875,99.5 z M 159,108.125 L 159,108.15625 L 158.90625,111.4375 L 159.90625,111.5 L 160,108.1875 L 160,108.15625 L 160.03125,107.46875 L 159.03125,107.46875 L 159,108.125 z M 158.3125,118.96875 L 158.3125,119 L 158.28125,119.375 L 159.28125,119.5 L 159.3125,119.09375 L 159.65625,115.5 L 158.65625,115.40625 L 158.3125,118.96875 z M 157.34375,126.125 L 157.34375,126.15625 L 157.125,127.25 L 158.09375,127.4375 L 158.3125,126.3125 L 158.75,123.5 L 157.78125,123.34375 L 157.34375,126.125 z M 155.875,133.15625 L 155.375,135.03125 L 156.3125,135.28125 L 156.84375,133.40625 L 157.3125,131.375 L 156.3125,131.15625 L 155.875,133.15625 z M 153.875,139.96875 L 152.90625,142.59375 L 153.84375,142.9375 L 154.8125,140.3125 L 154.8125,140.28125 L 155.1875,139.125 L 154.21875,138.84375 L 153.875,139.96875 z M 151.28125,146.46875 L 151.28125,146.5 L 149.75,149.625 L 149.75,149.65625 L 149.65625,149.8125 L 150.53125,150.28125 L 150.625,150.09375 L 150.65625,150.09375 L 152.1875,146.90625 L 152.3125,146.65625 L 151.375,146.25 L 151.28125,146.46875 z M 147.15625,154.125 L 147.15625,154.15625 L 146.21875,155.59375 L 145.5,156.59375 L 146.34375,157.15625 L 147.03125,156.15625 L 148,154.6875 L 148.5625,153.78125 L 147.6875,153.28125 L 147.15625,154.125 z M 143.09375,159.78125 L 141.9375,161.09375 L 141.96875,161.09375 L 141.96875,161.125 L 140.78125,162.40625 L 140.5,162.6875 L 141.1875,163.40625 L 141.5,163.09375 L 142.6875,161.78125 L 142.6875,161.75 L 142.71875,161.75 L 143.84375,160.40625 L 143.875,160.40625 L 143.90625,160.375 L 143.125,159.75 L 143.09375,159.78125 z M 136.9375,166.09375 L 136.9375,166.0625 L 135.5625,167.25 L 135.5625,167.21875 L 134.59375,168 L 135.21875,168.78125 L 136.1875,168 L 137.59375,166.84375 L 138.3125,166.1875 L 137.625,165.4375 L 136.9375,166.09375 z M 131.125,170.4375 L 131.09375,170.46875 L 129.53125,171.4375 L 127.96875,172.34375 L 128.46875,173.21875 L 130.03125,172.3125 L 130.0625,172.3125 L 131.65625,171.3125 L 131.65625,171.28125 L 131.90625,171.125 L 131.375,170.28125 L 131.125,170.4375 z M 42.15625,174.53125 L 44.90625,175.28125 L 46.03125,175.5625 L 46.28125,174.59375 L 45.15625,174.3125 L 42.4375,173.5625 L 42.15625,174.53125 z M 122.625,174.96875 L 122.59375,174.96875 L 120.8125,175.71875 L 121.1875,176.65625 L 123,175.90625 L 123.03125,175.90625 L 124.84375,175.0625 L 124.875,175.0625 L 124.4375,174.15625 L 124.40625,174.15625 L 122.625,174.96875 z M 49.9375,176.53125 L 52.34375,177.09375 L 52.375,177.09375 L 53.84375,177.4375 L 54.0625,176.4375 L 52.59375,176.125 L 50.15625,175.5625 L 49.9375,176.53125 z M 116.84375,177.125 L 116.8125,177.125 L 114.78125,177.75 L 114.75,177.75 L 113.25,178.15625 L 113.5,179.125 L 115.03125,178.71875 L 115.0625,178.71875 L 117.125,178.09375 L 117.375,178 L 117.0625,177.0625 L 116.84375,177.125 z M 57.75,178.25 L 59.5,178.625 L 61.6875,179.03125 L 61.875,178.03125 L 59.6875,177.625 L 57.96875,177.28125 L 57.75,178.25 z M 65.65625,179.71875 L 66.34375,179.84375 L 69.59375,180.34375 L 69.75,179.34375 L 66.5,178.84375 L 65.8125,178.71875 L 65.65625,179.71875 z M 108.25,179.28125 L 108.21875,179.28125 L 105.9375,179.6875 L 105.46875,179.75 L 105.625,180.75 L 106.09375,180.6875 L 108.40625,180.28125 L 108.4375,180.28125 L 108.4375,180.25 L 109.59375,180.03125 L 109.375,179.0625 L 108.25,179.28125 z M 73.59375,180.84375 L 76.03125,181.125 L 77.59375,181.25 L 77.65625,180.25 L 76.125,180.125 L 73.6875,179.84375 L 73.59375,180.84375 z M 101.15625,180.3125 L 101.125,180.3125 L 98.65625,180.5625 L 98.625,180.5625 L 97.5625,180.625 L 97.625,181.625 L 98.71875,181.5625 L 98.71875,181.53125 L 101.21875,181.3125 L 101.25,181.3125 L 101.65625,181.28125 L 101.53125,180.28125 L 101.15625,180.3125 z M 81.5625,181.59375 L 82.125,181.625 L 85.0625,181.78125 L 85.59375,181.78125 L 85.625,180.78125 L 85.09375,180.78125 L 82.1875,180.625 L 81.65625,180.59375 L 81.5625,181.59375 z M 90.71875,180.875 L 89.59375,180.875 L 89.59375,181.875 L 90.71875,181.875 L 90.75,181.875 L 93.4375,181.8125 L 93.46875,181.8125 L 93.625,181.8125 L 93.59375,180.8125 L 93.4375,180.8125 L 90.71875,180.875 z"
     id="path3232"
     style="fill:#000000;fill-opacity:1;fill-rule:evenodd;stroke:none;stroke-width:1;stroke-linecap:butt;stroke-linejoin:miter;stroke-miterlimit:4;stroke-dasharray:4, 4;stroke-dashoffset:0;stroke-opacity:1" />
  <path
     d="M 159.0625,110.125 L 160,111.28125 L 160.78125,110.625 L 159.84375,109.5 L 159.0625,110.125 z M 162.84375,114.21875 L 163.96875,115.1875 L 164,115.1875 L 165.25,116.15625 L 165.28125,116.15625 L 166.03125,116.6875 L 166.59375,115.875 L 165.84375,115.34375 L 165.8125,115.34375 L 164.625,114.40625 L 164.59375,114.40625 L 163.5,113.4375 L 162.84375,114.21875 z M 169.59375,118.6875 L 170.40625,119.03125 L 170.4375,119.03125 L 171.6875,119.53125 L 171.71875,119.53125 L 172.96875,119.9375 L 173.4375,120.0625 L 173.6875,119.09375 L 173.28125,118.96875 L 173.25,118.96875 L 172.03125,118.5625 L 172.03125,118.59375 L 170.8125,118.125 L 170.78125,118.09375 L 170.03125,117.75 L 169.59375,118.6875 z M 188.4375,118.90625 L 188.40625,118.90625 L 187.53125,119.15625 L 187.5,119.15625 L 186.3125,119.4375 L 185.375,119.59375 L 185.5625,120.59375 L 186.5,120.40625 L 186.53125,120.40625 L 187.75,120.125 L 187.78125,120.125 L 188.6875,119.875 L 188.71875,119.875 L 189.5,119.625 L 189.1875,118.65625 L 188.4375,118.90625 z M 177.4375,120.8125 L 177.84375,120.875 L 177.875,120.875 L 179,120.96875 L 179.03125,120.96875 L 181.15625,121 L 181.1875,121 L 181.21875,121 L 181.5,120.96875 L 181.46875,120 L 181.1875,120 L 181.15625,120 L 179.0625,119.96875 L 179.03125,119.96875 L 177.96875,119.875 L 177.9375,119.875 L 177.5625,119.84375 L 177.4375,120.8125 z"
     id="path3234"
     style="fill:#000000;fill-opacity:1;fill-rule:evenodd;stroke:none;stroke-width:1;stroke-linecap:butt;stroke-linejoin:miter;stroke-miterlimit:4;stroke-dasharray:4, 4;stroke-dashoffset:0;stroke-opacity:1" />
  <path
     d="M 86.5625,182.09375 L 88.65625,183.09375 L 90.125,183.84375 L 90.59375,182.9375 L 89.09375,182.1875 L 86.96875,181.1875 L 86.5625,182.09375 z M 93.65625,185.6875 L 94.03125,185.90625 L 94.0625,185.90625 L 96.59375,187.375 L 96.625,187.375 L 97.09375,187.6875 L 97.625,186.84375 L 97.125,186.53125 L 94.53125,185.03125 L 94.125,184.8125 L 93.65625,185.6875 z M 100.46875,189.8125 L 101.46875,190.46875 L 103.75,192.0625 L 104.3125,191.25 L 102.03125,189.65625 L 101.03125,189 L 100.46875,189.8125 z M 106.9375,194.46875 L 108.125,195.40625 L 110,197 L 110.65625,196.21875 L 108.75,194.625 L 107.53125,193.6875 L 106.9375,194.46875 z M 112.96875,199.625 L 114.03125,200.65625 L 114.0625,200.65625 L 115.84375,202.40625 L 116.53125,201.6875 L 114.75,199.9375 L 114.75,199.90625 L 113.65625,198.90625 L 112.96875,199.625 z M 118.5625,205.3125 L 119.3125,206.125 L 119.28125,206.125 L 120.90625,207.96875 L 120.90625,208 L 121.15625,208.3125 L 121.9375,207.65625 L 121.6875,207.34375 L 121.65625,207.34375 L 120.0625,205.46875 L 120.03125,205.46875 L 119.28125,204.625 L 118.5625,205.3125 z M 123.625,211.4375 L 123.90625,211.75 L 123.90625,211.78125 L 125.3125,213.6875 L 125.96875,214.625 L 126.78125,214.0625 L 126.125,213.09375 L 124.71875,211.1875 L 124.71875,211.15625 L 124.6875,211.15625 L 124.4375,210.8125 L 123.625,211.4375 z M 128.1875,217.9375 L 129.125,219.46875 L 130.25,221.34375 L 131.125,220.84375 L 129.96875,218.9375 L 129.03125,217.40625 L 128.1875,217.9375 z M 132.15625,224.84375 L 133.375,227.1875 L 133.375,227.21875 L 133.9375,228.40625 L 134.84375,227.96875 L 134.28125,226.78125 L 134.28125,226.75 L 133.03125,224.375 L 132.15625,224.84375 z M 135.59375,232.03125 L 136.78125,234.84375 L 136.78125,234.875 L 137.09375,235.71875 L 138.03125,235.34375 L 137.71875,234.5 L 137.6875,234.5 L 137.6875,234.46875 L 136.5,231.625 L 135.59375,232.03125 z M 138.4375,239.4375 L 139.40625,242.25 L 139.375,242.25 L 139.6875,243.21875 L 140.625,242.9375 L 140.34375,241.96875 L 140.34375,241.9375 L 139.40625,239.125 L 138.4375,239.4375 z M 140.78125,247.0625 L 141.34375,249.25 L 141.71875,250.9375 L 142.6875,250.71875 L 142.3125,249.03125 L 142.3125,249 L 141.75,246.8125 L 140.78125,247.0625 z M 142.53125,254.84375 L 142.71875,255.6875 L 142.71875,255.71875 L 143.21875,258.65625 L 143.21875,258.6875 L 143.21875,258.75 L 144.21875,258.59375 L 144.21875,258.53125 L 144.1875,258.5 L 143.6875,255.53125 L 143.6875,255.5 L 143.53125,254.625 L 142.53125,254.84375 z M 143.75,262.6875 L 143.90625,264 L 143.90625,264.03125 L 144.125,266.34375 L 144.15625,266.65625 L 145.15625,266.59375 L 145.125,266.28125 L 145.125,266.25 L 144.90625,263.90625 L 144.75,262.59375 L 143.75,262.6875 z M 144.375,270.625 L 144.4375,271.75 L 144.4375,271.78125 L 144.4375,273.875 L 144.4375,274.59375 L 145.4375,274.625 L 145.4375,273.875 L 145.4375,271.75 L 145.4375,271.71875 L 145.375,270.59375 L 144.375,270.625 z"
     id="path3236"
     style="fill:#000000;fill-opacity:1;fill-rule:evenodd;stroke:none;stroke-width:1;stroke-linecap:butt;stroke-linejoin:miter;stroke-miterlimit:4;stroke-dasharray:4, 4;stroke-dashoffset:0;stroke-opacity:1" />
  <path
     d="M 166.95067,290.02398 L 166.95067,290.02398 z"
     id="path3240"
     style="fill:none;fill-rule:evenodd;stroke:#000000;stroke-width:1px;stroke-linecap:butt;stroke-linejoin:miter;marker-start:url(#DotL);stroke-opacity:1" />
  <g
     id="g9598">
    <path
       d="M 191.84375,61.1875 L 178.59375,95.90625 L 179.53125,96.25 L 192.75,61.53125 L 191.84375,61.1875 z"
       id="path3763"
       style="fill:#000000;fill-opacity:1;fill-rule:evenodd;stroke:none;stroke-width:1px;stroke-linecap:butt;stroke-linejoin:miter;stroke-opacity:1" />
    <path
       d="M 180.468,92.411498 C 182.53135,93.197535 183.56801,95.510081 182.78197,97.57343 C 181.99593,99.636779 179.68339,100.67344 177.62004,99.8874 C 175.55669,99.101363 174.52003,96.788817 175.30607,94.725468 C 176.09211,92.662119 178.40465,91.62546 180.468,92.411498 z"
       id="path9604"
       style="fill-rule:evenodd;stroke:#000000;stroke-width:0.8pt;marker-start:none;marker-end:none" />
    <path
       d="M 193.69181,57.698983 C 195.75516,58.48502 196.79182,60.797566 196.00578,62.860915 C 195.21974,64.924264 192.9072,65.960923 190.84385,65.174885 C 188.7805,64.388848 187.74384,62.076302 188.52988,60.012953 C 189.31592,57.949604 191.62846,56.912945 193.69181,57.698983 z"
       id="path9606"
       style="fill-rule:evenodd;stroke:#000000;stroke-width:0.8pt;marker-start:none;marker-end:none" />
  </g>
  <g
     id="g9580">
    <path
       d="M 132.0625,75.4375 L 131.4375,75.8125 L 88.4375,101.71875 L 88.28125,101.8125 L 88.25,101.96875 L 69.5,157.0625 L 69.28125,157.78125 L 70,157.71875 L 117.9375,155.53125 L 118.1875,155.53125 L 118.34375,155.3125 L 140.375,122.25 L 140.46875,122.09375 L 140.4375,121.875 L 132.1875,76.15625 L 132.0625,75.4375 z M 131.3125,77.03125 L 139.4375,121.84375 L 117.625,154.53125 L 70.6875,156.71875 L 89.125,102.46875 L 131.3125,77.03125 z"
       id="path4809"
       style="fill:#000000;fill-opacity:1;fill-rule:evenodd;stroke:none;stroke-width:1px;stroke-linecap:butt;stroke-linejoin:miter;stroke-opacity:1" />
    <path
       d="M 72.331156,160.36848 C 70.566082,161.69504 68.056925,161.33915 66.730359,159.57408 C 65.403793,157.809 65.759684,155.29985 67.524758,153.97328 C 69.289832,152.64671 71.798989,153.0026 73.125555,154.76768 C 74.452121,156.53275 74.09623,159.04191 72.331156,160.36848 z"
       id="path9586"
       style="fill-rule:evenodd;stroke:#000000;stroke-width:0.8pt;marker-start:none;marker-end:none" />
    <path
       d="M 121.32511,153.10228 C 122.41142,155.02457 121.73294,157.46633 119.81064,158.55263 C 117.88835,159.63894 115.44659,158.96045 114.36029,157.03816 C 113.27398,155.11587 113.95247,152.67411 115.87476,151.58781 C 117.79705,150.5015 120.23881,151.17998 121.32511,153.10228 z"
       id="path9588"
       style="fill-rule:evenodd;stroke:#000000;stroke-width:0.8pt;marker-start:none;marker-end:none" />
    <path
       d="M 140.74851,118.13309 C 142.91045,118.58171 144.30097,120.70043 143.85235,122.86237 C 143.40373,125.02432 141.28501,126.41484 139.12306,125.96622 C 136.96112,125.51759 135.5706,123.39887 136.01922,121.23693 C 136.46784,119.07499 138.58656,117.68446 140.74851,118.13309 z"
       id="path9590"
       style="fill-rule:evenodd;stroke:#000000;stroke-width:0.8pt;marker-start:none;marker-end:none" />
    <path
       d="M 128.11565,74.623203 C 129.02575,72.611494 131.39708,71.717436 133.40879,72.627539 C 135.4205,73.537642 136.31455,75.908968 135.40445,77.920678 C 134.49435,79.932388 132.12302,80.826446 130.11131,79.916343 C 128.0996,79.00624 127.20554,76.634913 128.11565,74.623203 z"
       id="path9592"
       style="fill-rule:evenodd;stroke:#000000;stroke-width:0.8pt;marker-start:none;marker-end:none" />
    <path
       d="M 86.250638,105.18833 C 84.531145,103.8032 84.259784,101.28349 85.644922,99.564002 C 87.03006,97.844508 89.549761,97.573148 91.269254,98.958286 C 92.988747,100.34342 93.260108,102.86312 91.87497,104.58262 C 90.489832,106.30211 87.970131,106.57347 86.250638,105.18833 z"
       id="path9594"
       style="fill-rule:evenodd;stroke:#000000;stroke-width:0.8pt;marker-start:none;marker-end:none" />
    <path
       d="M 72.331156,160.36848 C 70.566082,161.69504 68.056925,161.33915 66.730359,159.57408 C 65.403793,157.809 65.759684,155.29985 67.524758,153.97328 C 69.289832,152.64671 71.798989,153.0026 73.125555,154.76768 C 74.452121,156.53275 74.09623,159.04191 72.331156,160.36848 z"
       id="path9596"
       style="fill-rule:evenodd;stroke:#000000;stroke-width:0.8pt;marker-start:none;marker-end:none" />
  </g>
  <path
     d="M 87.59375,101.1875 L 88.28125,102.375 L 107.75,137.65625 L 69.75,156.78125 L 70.1875,157.6875 L 108.21875,138.53125 L 117.46875,155.28125 L 118.34375,154.78125 L 109.125,138.0625 L 140.1875,122.40625 L 141.1875,121.90625 L 140.125,121.5 L 88.875,101.65625 L 87.59375,101.1875 z M 89.8125,103.09375 L 138.71875,122.03125 L 108.625,137.1875 L 89.8125,103.09375 z"
     id="path4811"
     style="fill:#000000;fill-opacity:1;fill-rule:evenodd;stroke:none;stroke-width:1px;stroke-linecap:butt;stroke-linejoin:miter;stroke-opacity:1" />
  <path
     d="M 131.28125,75.9375 L 69.59375,156.9375 L 70.375,157.53125 L 130.84375,78.1875 L 117.40625,154.9375 L 118.40625,155.125 L 132.1875,76.3125 L 131.28125,75.9375 z"
     id="path4813"
     style="fill:#000000;fill-opacity:1;fill-rule:evenodd;stroke:none;stroke-width:1px;stroke-linecap:butt;stroke-linejoin:miter;stroke-opacity:1" />
  <g
     id="g9552">
    <path
       d="M 252.5625,97.5625 L 252.25,97.75 L 219.53125,114.09375 L 219.3125,114.1875 L 219.25,114.40625 L 207.5625,158.84375 L 207.5,159.125 L 207.71875,159.34375 L 243.5625,190.5 L 243.8125,190.71875 L 244.09375,190.59375 L 290.0625,170.3125 L 290.40625,170.1875 L 290.375,169.8125 L 286.46875,130.09375 L 286.46875,129.90625 L 286.3125,129.78125 L 252.8125,97.8125 L 252.5625,97.5625 z M 252.375,98.78125 L 285.5,130.375 L 289.34375,169.53125 L 244,189.5625 L 208.59375,158.8125 L 220.15625,114.90625 L 252.375,98.78125 z"
       id="path2396"
       style="fill:#000000;fill-opacity:1;fill-rule:evenodd;stroke:none;stroke-width:1px;stroke-linecap:butt;stroke-linejoin:miter;stroke-opacity:1" />
    <path
       d="M 256.34412,98.76363 C 256.01641,100.94717 253.97828,102.45335 251.79474,102.12564 C 249.61119,101.79792 248.10501,99.759795 248.43273,97.576251 C 248.76045,95.392706 250.79857,93.886527 252.98212,94.214244 C 255.16566,94.541961 256.67184,96.580085 256.34412,98.76363 z"
       id="path9558"
       style="fill-rule:evenodd;stroke:#000000;stroke-width:0.8pt;marker-start:none;marker-end:none" />
    <path
       d="M 287.69133,133.65368 C 285.70648,134.62097 283.31054,133.79512 282.34326,131.81028 C 281.37597,129.82543 282.20181,127.42949 284.18666,126.46221 C 286.17151,125.49492 288.56744,126.32077 289.53473,128.30561 C 290.50202,130.29046 289.67617,132.6864 287.69133,133.65368 z"
       id="path9560"
       style="fill-rule:evenodd;stroke:#000000;stroke-width:0.8pt;marker-start:none;marker-end:none" />
    <path
       d="M 287.89184,173.25431 C 285.98565,172.14 285.34295,169.68858 286.45726,167.78238 C 287.57157,165.87619 290.02299,165.23349 291.92919,166.3478 C 293.83538,167.46211 294.47807,169.91353 293.36377,171.81973 C 292.24946,173.72592 289.79804,174.36862 287.89184,173.25431 z"
       id="path9562"
       style="fill-rule:evenodd;stroke:#000000;stroke-width:0.8pt;marker-start:none;marker-end:none" />
    <path
       d="M 240.02032,189.54278 C 240.35101,187.35968 242.39119,185.85628 244.57428,186.18697 C 246.75738,186.51766 248.26078,188.55783 247.93009,190.74093 C 247.5994,192.92402 245.55923,194.42743 243.37613,194.09674 C 241.19304,193.76605 239.68963,191.72587 240.02032,189.54278 z"
       id="path9564"
       style="fill-rule:evenodd;stroke:#000000;stroke-width:0.8pt;marker-start:none;marker-end:none" />
    <path
       d="M 206.89776,155.2148 C 209.00789,154.56469 211.24808,155.74962 211.89819,157.85974 C 212.5483,159.96987 211.36337,162.21006 209.25325,162.86017 C 207.14312,163.51028 204.90293,162.32535 204.25282,160.21522 C 203.60271,158.1051 204.78764,155.86491 206.89776,155.2148 z"
       id="path9566"
       style="fill-rule:evenodd;stroke:#000000;stroke-width:0.8pt;marker-start:none;marker-end:none" />
    <path
       d="M 222.21195,111.50287 C 223.92572,112.89509 224.1867,115.41588 222.79449,117.12965 C 221.40227,118.84343 218.88148,119.1044 217.16771,117.71219 C 215.45393,116.31998 215.19296,113.79918 216.58517,112.08541 C 217.97738,110.37164 220.49818,110.11066 222.21195,111.50287 z"
       id="path9568"
       style="fill-rule:evenodd;stroke:#000000;stroke-width:0.8pt;marker-start:none;marker-end:none" />
    <path
       d="M 256.34412,98.76363 C 256.01641,100.94717 253.97828,102.45335 251.79474,102.12564 C 249.61119,101.79792 248.10501,99.759795 248.43273,97.576251 C 248.76045,95.392706 250.79857,93.886527 252.98212,94.214244 C 255.16566,94.541961 256.67184,96.580085 256.34412,98.76363 z"
       id="path9570"
       style="fill-rule:evenodd;stroke:#000000;stroke-width:0.8pt;marker-start:none;marker-end:none" />
  </g>
  <path
     d="M 253.125,96.4375 L 252.0625,97.875 L 237.25,118.15625 L 219.84375,114.0625 L 219.4375,114.9375 L 232.21875,125.03125 L 207.65625,158.65625 L 207.15625,159.34375 L 208,159.46875 L 245.78125,164.5 L 243.40625,190.09375 L 243.21875,191.96875 L 244.3125,190.40625 L 261.03125,166.53125 L 289.8125,170.375 L 291.625,170.59375 L 290.1875,169.46875 L 270.09375,153.625 L 286.375,130.40625 L 286.8125,129.8125 L 286.09375,129.65625 L 250.8125,121.34375 L 252.96875,98.21875 L 253.125,96.4375 z M 251.8125,99.9375 L 249.8125,121.125 L 238.3125,118.40625 L 251.8125,99.9375 z M 221.84375,115.5625 L 236.59375,119.03125 L 232.8125,124.21875 L 221.84375,115.5625 z M 237.65625,119.28125 L 249.75,122.125 L 248.40625,136.5 L 233.59375,124.84375 L 237.65625,119.28125 z M 250.71875,122.34375 L 285.125,130.4375 L 269.3125,153 L 249.34375,137.25 L 250.71875,122.34375 z M 233.03125,125.65625 L 248.28125,137.6875 L 245.875,163.5 L 208.96875,158.59375 L 233.03125,125.65625 z M 249.21875,138.4375 L 268.75,153.84375 L 260.59375,165.46875 L 246.875,163.625 L 249.21875,138.4375 z M 269.53125,154.4375 L 288.15625,169.125 L 261.6875,165.625 L 269.53125,154.4375 z M 246.78125,164.625 L 259.9375,166.40625 L 244.59375,188.3125 L 246.78125,164.625 z"
     id="path2398"
     style="fill:#000000;fill-opacity:1;fill-rule:evenodd;stroke:none;stroke-width:1px;stroke-linecap:butt;stroke-linejoin:miter;stroke-opacity:1" />
  <path
     d="M 220.21875,114.40625 L 219.25,114.6875 L 243.40625,190.28125 L 244.375,189.96875 L 220.21875,114.40625 z"
     id="path2400"
     style="fill:#000000;fill-opacity:1;fill-rule:evenodd;stroke:none;stroke-width:1px;stroke-linecap:butt;stroke-linejoin:miter;stroke-opacity:1" />
  <path
     d="M 252.90625,97.9375 L 252.03125,98.40625 L 289.4375,170.09375 L 290.3125,169.625 L 252.90625,97.9375 z"
     id="path2402"
     style="fill:#000000;fill-opacity:1;fill-rule:evenodd;stroke:none;stroke-width:1px;stroke-linecap:butt;stroke-linejoin:miter;stroke-opacity:1" />
  <path
     d="M 285.8125,129.65625 L 207.875,158.5 L 208.21875,159.4375 L 286.15625,130.59375 L 285.8125,129.65625 z"
     id="path2404"
     style="fill:#000000;fill-opacity:1;fill-rule:evenodd;stroke:none;stroke-width:1px;stroke-linecap:butt;stroke-linejoin:miter;stroke-opacity:1" />
  <g
     id="g9520">
    <path
       d="M 166,158.75 L 165.5625,159.46875 L 140.625,199.21875 L 140.4375,199.5 L 140.625,199.75 L 166.34375,239.5 L 166.59375,239.875 L 167,239.65625 L 199.71875,220.96875 L 200.15625,220.71875 L 199.90625,220.28125 L 166.40625,159.5 L 166,158.75 z M 165.9375,160.71875 L 198.8125,220.34375 L 166.9375,238.53125 L 141.625,199.46875 L 165.9375,160.71875 z"
       id="path4751"
       style="fill:#000000;fill-opacity:1;fill-rule:evenodd;stroke:none;stroke-width:1px;stroke-linecap:butt;stroke-linejoin:miter;stroke-opacity:1" />
    <path
       d="M 162.0556,159.62946 C 162.118,157.42234 163.95993,155.6817 166.16705,155.74411 C 168.37417,155.80651 170.1148,157.64844 170.0524,159.85556 C 169.99,162.06268 168.14807,163.80332 165.94095,163.74091 C 163.73383,163.67851 161.99319,161.83658 162.0556,159.62946 z"
       id="path9526"
       style="fill-rule:evenodd;stroke:#000000;stroke-width:0.8pt;marker-start:none;marker-end:none" />
    <path
       d="M 141.06629,203.40042 C 138.85835,203.41582 137.05389,201.63636 137.0385,199.42841 C 137.0231,197.22047 138.80257,195.41601 141.01051,195.40062 C 143.21846,195.38522 145.02291,197.16469 145.0383,199.37263 C 145.0537,201.58058 143.27424,203.38503 141.06629,203.40042 z"
       id="path9528"
       style="fill-rule:evenodd;stroke:#000000;stroke-width:0.8pt;marker-start:none;marker-end:none" />
    <path
       d="M 170.56213,240.14752 C 170.04013,242.29293 167.87527,243.61048 165.72987,243.08848 C 163.58446,242.56648 162.26691,240.40162 162.78891,238.25621 C 163.31091,236.11081 165.47576,234.79326 167.62117,235.31526 C 169.76658,235.83726 171.08413,238.00211 170.56213,240.14752 z"
       id="path9530"
       style="fill-rule:evenodd;stroke:#000000;stroke-width:0.8pt;marker-start:none;marker-end:none" />
    <path
       d="M 200.54089,216.74561 C 202.66657,217.34287 203.90703,219.5528 203.30977,221.67848 C 202.71251,223.80417 200.50258,225.04463 198.37689,224.44737 C 196.25121,223.85011 195.01075,221.64018 195.60801,219.51449 C 196.20527,217.3888 198.4152,216.14834 200.54089,216.74561 z"
       id="path9532"
       style="fill-rule:evenodd;stroke:#000000;stroke-width:0.8pt;marker-start:none;marker-end:none" />
    <path
       d="M 162.0556,159.62946 C 162.118,157.42234 163.95993,155.6817 166.16705,155.74411 C 168.37417,155.80651 170.1148,157.64844 170.0524,159.85556 C 169.99,162.06268 168.14807,163.80332 165.94095,163.74091 C 163.73383,163.67851 161.99319,161.83658 162.0556,159.62946 z"
       id="path9534"
       style="fill-rule:evenodd;stroke:#000000;stroke-width:0.8pt;marker-start:none;marker-end:none" />
  </g>
  <path
     d="M 165.46875,159.75 L 166.25,239.21875 L 167.25,239.21875 L 166.46875,159.75 L 165.46875,159.75 z"
     id="path4753"
     style="fill:#000000;fill-opacity:1;fill-rule:evenodd;stroke:none;stroke-width:1px;stroke-linecap:butt;stroke-linejoin:miter;stroke-opacity:1" />
  <path
     d="M 141.21875,199 L 140.875,199.9375 L 199.3125,221 L 199.65625,220.0625 L 141.21875,199 z"
     id="path4755"
     style="fill:#000000;fill-opacity:1;fill-rule:evenodd;stroke:none;stroke-width:1px;stroke-linecap:butt;stroke-linejoin:miter;stroke-opacity:1" />
  <g
     id="g9496">
    <path
       d="M 292.9375,230.9375 L 292.78125,230.96875 L 227.46875,239.5 L 227.09375,239.5625 L 227.03125,239.9375 L 220.8125,296.0625 L 221.71875,296.375 L 253.5625,249.75 L 293.03125,231.9375 L 293.0625,231.9375 L 293.1875,231.875 L 292.9375,230.9375 z M 289.65625,232.375 L 253.03125,248.90625 L 252.90625,248.9375 L 252.84375,249.0625 L 222,294.15625 L 228,240.4375 L 289.65625,232.375 z"
       id="path6320"
       style="fill:#000000;fill-opacity:1;fill-rule:evenodd;stroke:none;stroke-width:1px;stroke-linecap:butt;stroke-linejoin:miter;stroke-opacity:1" />
    <path
       d="M 224.78785,242.79882 C 223.21137,241.25286 223.1866,238.71871 224.73255,237.14223 C 226.2785,235.56575 228.81265,235.54097 230.38913,237.08693 C 231.96561,238.63288 231.99039,241.16703 230.44444,242.74351 C 228.89849,244.31999 226.36434,244.34477 224.78785,242.79882 z"
       id="path9502"
       style="fill-rule:evenodd;stroke:#000000;stroke-width:0.8pt;marker-start:none;marker-end:none" />
    <path
       d="M 224.97421,297.46665 C 224.20662,299.53693 221.90341,300.59418 219.83313,299.82659 C 217.76285,299.059 216.7056,296.75579 217.47319,294.68551 C 218.24078,292.61523 220.54399,291.55798 222.61427,292.32557 C 224.68455,293.09316 225.7418,295.39636 224.97421,297.46665 z"
       id="path9504"
       style="fill-rule:evenodd;stroke:#000000;stroke-width:0.8pt;marker-start:none;marker-end:none" />
    <path
       d="M 256.25123,246.83279 C 257.66945,248.5251 257.44699,251.04959 255.75468,252.46781 C 254.06236,253.88603 251.53788,253.66357 250.11966,251.97126 C 248.70144,250.27894 248.9239,247.75446 250.61621,246.33624 C 252.30852,244.91802 254.83301,245.14048 256.25123,246.83279 z"
       id="path9506"
       style="fill-rule:evenodd;stroke:#000000;stroke-width:0.8pt;marker-start:none;marker-end:none" />
    <path
       d="M 291.91524,227.65794 C 294.03911,227.05424 296.25278,228.288 296.85648,230.41187 C 297.46018,232.53574 296.22641,234.74941 294.10255,235.35311 C 291.97868,235.95681 289.765,234.72304 289.16131,232.59918 C 288.55761,230.47531 289.79137,228.26163 291.91524,227.65794 z"
       id="path9508"
       style="fill-rule:evenodd;stroke:#000000;stroke-width:0.8pt;marker-start:none;marker-end:none" />
    <path
       d="M 224.78785,242.79882 C 223.21137,241.25286 223.1866,238.71871 224.73255,237.14223 C 226.2785,235.56575 228.81265,235.54097 230.38913,237.08693 C 231.96561,238.63288 231.99039,241.16703 230.44444,242.74351 C 228.89849,244.31999 226.36434,244.34477 224.78785,242.79882 z"
       id="path9510"
       style="fill-rule:evenodd;stroke:#000000;stroke-width:0.8pt;marker-start:none;marker-end:none" />
  </g>
  <path
     d="M 292.65625,231.0625 L 220.96875,295.71875 L 221.625,296.46875 L 293.3125,231.8125 L 292.65625,231.0625 z"
     id="path6322"
     style="fill:#000000;fill-opacity:1;fill-rule:evenodd;stroke:none;stroke-width:1px;stroke-linecap:butt;stroke-linejoin:miter;stroke-opacity:1" />
  <path
     d="M 227.71875,239.53125 L 227.375,240.46875 L 253.0625,249.8125 L 253.40625,248.875 L 227.71875,239.53125 z"
     id="path6324"
     style="fill:#000000;fill-opacity:1;fill-rule:evenodd;stroke:none;stroke-width:1px;stroke-linecap:butt;stroke-linejoin:miter;stroke-opacity:1" />
  <g
     id="g9474">
    <path
       d="M 74.78125,197.78125 L 75.09375,199.5625 L 84.4375,254.125 L 84.5,254.5 L 84.875,254.53125 L 125.40625,258.40625 L 126.625,258.53125 L 125.84375,257.59375 L 75.96875,199.15625 L 74.78125,197.78125 z M 76.375,201.15625 L 124.28125,257.3125 L 85.375,253.5625 L 76.375,201.15625 z"
       id="path7889"
       style="fill:#000000;fill-opacity:1;fill-rule:evenodd;stroke:none;stroke-width:1px;stroke-linecap:butt;stroke-linejoin:miter;stroke-opacity:1" />
    <path
       d="M 79.134206,197.81757 C 80.070887,199.81704 79.208332,202.20001 77.208859,203.13669 C 75.209386,204.07337 72.82642,203.21082 71.889739,201.21134 C 70.953057,199.21187 71.815613,196.82891 73.815086,195.89222 C 75.814559,194.95554 78.197524,195.8181 79.134206,197.81757 z"
       id="path9480"
       style="fill-rule:evenodd;stroke:#000000;stroke-width:0.8pt;marker-start:none;marker-end:none" />
    <path
       d="M 123.64398,261.39889 C 121.68561,260.37906 120.9239,257.96197 121.94373,256.0036 C 122.96357,254.04523 125.38066,253.28352 127.33902,254.30336 C 129.29739,255.32319 130.0591,257.74028 129.03927,259.69865 C 128.01943,261.65702 125.60234,262.41873 123.64398,261.39889 z"
       id="path9482"
       style="fill-rule:evenodd;stroke:#000000;stroke-width:0.8pt;marker-start:none;marker-end:none" />
    <path
       d="M 82.062678,251.35843 C 83.565212,249.74051 86.097752,249.64687 87.715669,251.1494 C 89.333586,252.65193 89.42723,255.18447 87.924696,256.80239 C 86.422162,258.42031 83.889622,258.51395 82.271705,257.01142 C 80.653788,255.50888 80.560144,252.97634 82.062678,251.35843 z"
       id="path9484"
       style="fill-rule:evenodd;stroke:#000000;stroke-width:0.8pt;marker-start:none;marker-end:none" />
    <path
       d="M 79.134206,197.81757 C 80.070887,199.81704 79.208332,202.20001 77.208859,203.13669 C 75.209386,204.07337 72.82642,203.21082 71.889739,201.21134 C 70.953057,199.21187 71.815613,196.82891 73.815086,195.89222 C 75.814559,194.95554 78.197524,195.8181 79.134206,197.81757 z"
       id="path9486"
       style="fill-rule:evenodd;stroke:#000000;stroke-width:0.8pt;marker-start:none;marker-end:none" />
  </g>
</svg>
